<svg width="393" height="538" viewBox="0 0 393 538" fill="none" xmlns="http://www.w3.org/2000/svg">
<path d="M-74.2622 436.988C-37.538 399.778 -16.1943 420.843 20.5299 383.632C57.2541 346.422 35.9104 325.357 72.6241 288.158C109.338 250.959 130.692 272.013 167.416 234.803C204.14 197.593 182.797 176.528 219.521 139.318C256.245 102.108 277.589 123.173 314.324 85.952C351.058 48.7313 329.704 27.677 366.428 -9.53309" stroke="url(#paint0_linear_306_22112)" stroke-width="0.467557" stroke-miterlimit="10"/>
<path d="M-141.077 376.685C-104.352 339.475 -83.0088 360.54 -46.2846 323.33C-9.56035 286.12 -30.904 265.055 5.80961 227.856C42.5232 190.656 63.8775 211.71 100.602 174.5C137.326 137.29 115.982 116.225 152.706 79.0153C189.431 41.8053 210.774 62.8702 247.509 25.6495C284.244 -11.5713 262.89 -32.6256 299.614 -69.8356" stroke="url(#paint1_linear_306_22112)" stroke-width="0.467557" stroke-miterlimit="10"/>
<path d="M-9.70618 505.684C27.018 468.474 48.3617 489.539 85.0859 452.329C121.81 415.119 100.466 394.054 137.18 356.855C173.894 319.655 195.248 340.71 231.972 303.5C268.696 266.29 247.353 245.225 284.077 208.014C320.801 170.804 342.145 191.869 378.88 154.649C415.614 117.428 394.26 96.3736 430.984 59.1635" stroke="url(#paint2_linear_306_22112)" stroke-width="0.467557" stroke-miterlimit="10"/>
<path d="M-83.1855 424.823C-46.4613 387.613 -25.1176 408.678 11.6066 371.468C48.3308 334.258 26.9871 313.193 63.7007 275.994C100.414 238.794 121.769 259.848 158.493 222.638C195.217 185.428 173.873 164.363 210.598 127.153C247.322 89.9433 268.665 111.008 305.4 73.7875C342.135 36.5667 320.781 15.5124 357.505 -21.6976" stroke="url(#paint3_linear_306_22112)" stroke-width="0.467557" stroke-miterlimit="10"/>
<path d="M-150 364.52C-113.276 327.31 -91.9321 348.375 -55.2079 311.165C-18.4837 273.955 -39.8274 252.89 -3.11373 215.691C33.5999 178.492 54.9542 199.546 91.6784 162.336C128.403 125.126 107.059 104.061 143.783 66.8507C180.507 29.6407 201.851 50.7057 238.586 13.4849C275.321 -23.7359 253.966 -44.7902 290.69 -82.0002" stroke="url(#paint4_linear_306_22112)" stroke-width="0.467557" stroke-miterlimit="10"/>
<path d="M-18.6295 493.52C18.0947 456.31 39.4384 477.375 76.1626 440.165C112.887 402.954 91.5431 381.889 128.257 344.69C164.97 307.491 186.325 328.545 223.049 291.335C259.773 254.125 238.429 233.06 275.154 195.85C311.878 158.64 333.221 179.705 369.956 142.484C406.691 105.263 385.337 84.209 422.061 46.999" stroke="url(#paint5_linear_306_22112)" stroke-width="0.467557" stroke-miterlimit="10"/>
<path d="M-108.259 406.729C-71.5346 369.519 -50.191 390.584 -13.4667 353.374C23.2575 316.164 1.91378 295.099 38.6274 257.899C75.3411 220.7 96.6953 241.754 133.42 204.544C170.144 167.334 148.8 146.269 185.524 109.059C222.248 71.8491 243.592 92.9141 280.327 55.6934C317.062 18.4726 295.707 -2.5817 332.432 -39.7918" stroke="url(#paint6_linear_306_22112)" stroke-width="0.467557" stroke-miterlimit="10"/>
<path d="M-43.7028 471.047C-6.97861 433.837 14.3651 454.902 51.0893 417.692C87.8135 380.481 66.4698 359.416 103.183 322.217C139.897 285.018 161.251 306.072 197.976 268.862C234.7 231.652 213.356 210.587 250.08 173.377C286.804 136.167 308.148 157.232 344.883 120.011C381.618 82.7903 360.263 61.736 396.988 24.5259" stroke="url(#paint7_linear_306_22112)" stroke-width="0.467557" stroke-miterlimit="10"/>
<path d="M-63.5904 447.521C-26.8662 410.31 -5.5225 431.375 31.2017 394.165C67.9259 356.955 46.5822 335.89 83.2959 298.691C120.01 261.492 141.364 282.546 178.088 245.336C214.812 208.126 193.468 187.061 230.193 149.851C266.917 112.641 288.261 133.706 324.995 96.4849C361.73 59.2642 340.376 38.2099 377.1 0.999811" stroke="url(#paint8_linear_306_22112)" stroke-width="0.467557" stroke-miterlimit="10"/>
<path d="M-130.405 387.217C-93.6806 350.007 -72.3369 371.072 -35.6127 333.862C1.11147 296.652 -20.2322 275.587 16.4814 238.388C53.1951 201.188 74.5493 222.243 111.274 185.033C147.998 147.823 126.654 126.758 163.378 89.5475C200.102 52.3375 221.446 73.4024 258.181 36.1817C294.916 -1.03909 273.561 -22.0934 310.286 -59.3034" stroke="url(#paint9_linear_306_22112)" stroke-width="0.467557" stroke-miterlimit="10"/>
<path d="M0.965942 516.217C37.6902 479.007 59.0338 500.072 95.758 462.862C132.482 425.652 111.139 404.587 147.852 367.388C184.566 330.188 205.92 351.243 242.644 314.032C279.369 276.822 258.025 255.757 294.749 218.547C331.473 181.337 352.817 202.402 389.552 165.182C426.286 127.961 404.932 106.906 441.656 69.6964" stroke="url(#paint10_linear_306_22112)" stroke-width="0.467557" stroke-miterlimit="10"/>
<path d="M-54.3746 460.514C-17.6504 423.304 3.69326 444.369 40.4175 407.159C77.1417 369.949 55.798 348.884 92.5116 311.684C129.225 274.485 150.58 295.539 187.304 258.329C224.028 221.119 202.684 200.054 239.408 162.844C276.133 125.634 297.476 146.699 334.211 109.478C370.946 72.2574 349.592 51.2031 386.316 13.993" stroke="url(#paint11_linear_306_22112)" stroke-width="0.467557" stroke-miterlimit="10"/>
<path d="M-118.931 396.196C-82.2065 358.986 -60.8628 380.051 -24.1386 342.841C12.5856 305.631 -8.75804 284.566 27.9556 247.367C64.6692 210.167 86.0235 231.221 122.748 194.011C159.472 156.801 138.128 135.736 174.852 98.5263C211.577 61.3163 232.92 82.3813 269.655 45.1605C306.39 7.93974 285.036 -13.1146 321.76 -50.3246" stroke="url(#paint12_linear_306_22112)" stroke-width="0.467557" stroke-miterlimit="10"/>
<path d="M-93.8574 414.291C-57.1332 377.081 -35.7895 398.146 0.934744 360.936C37.659 323.726 16.3153 302.661 53.0289 265.461C89.7425 228.262 111.097 249.316 147.821 212.106C184.545 174.896 163.202 153.831 199.926 116.621C236.65 79.4111 257.994 100.476 294.728 63.2553C331.463 26.0345 310.109 4.98022 346.833 -32.2298" stroke="url(#paint13_linear_306_22112)" stroke-width="0.467557" stroke-miterlimit="10"/>
<path d="M-29.3013 482.987C7.42288 445.777 28.7666 466.842 65.4908 429.632C102.215 392.422 80.8713 371.357 117.585 334.158C154.299 296.959 175.653 318.013 212.377 280.803C249.101 243.593 227.758 222.528 264.482 185.318C301.206 148.108 322.55 169.173 359.284 131.952C396.019 94.7311 374.665 73.6768 411.389 36.4667" stroke="url(#paint14_linear_306_22112)" stroke-width="0.467557" stroke-miterlimit="10"/>
<defs>
<linearGradient id="paint0_linear_306_22112" x1="146.083" y1="213.727" x2="167.427" y2="234.792" gradientUnits="userSpaceOnUse">
<stop stop-color="#9BD71B"/>
<stop offset="1" stop-color="#4A4B57"/>
</linearGradient>
<linearGradient id="paint1_linear_306_22112" x1="79.2686" y1="153.425" x2="100.612" y2="174.49" gradientUnits="userSpaceOnUse">
<stop stop-color="#9BD71B"/>
<stop offset="1" stop-color="#4A4B57"/>
</linearGradient>
<linearGradient id="paint2_linear_306_22112" x1="210.639" y1="282.424" x2="231.983" y2="303.489" gradientUnits="userSpaceOnUse">
<stop stop-color="#9BD71B"/>
<stop offset="1" stop-color="#4A4B57"/>
</linearGradient>
<linearGradient id="paint3_linear_306_22112" x1="137.16" y1="201.563" x2="158.503" y2="222.628" gradientUnits="userSpaceOnUse">
<stop stop-color="#9BD71B"/>
<stop offset="1" stop-color="#4A4B57"/>
</linearGradient>
<linearGradient id="paint4_linear_306_22112" x1="70.3452" y1="141.26" x2="91.6889" y2="162.325" gradientUnits="userSpaceOnUse">
<stop stop-color="#9BD71B"/>
<stop offset="1" stop-color="#4A4B57"/>
</linearGradient>
<linearGradient id="paint5_linear_306_22112" x1="201.716" y1="270.259" x2="223.059" y2="291.324" gradientUnits="userSpaceOnUse">
<stop stop-color="#9BD71B"/>
<stop offset="1" stop-color="#4A4B57"/>
</linearGradient>
<linearGradient id="paint6_linear_306_22112" x1="112.086" y1="183.469" x2="133.43" y2="204.534" gradientUnits="userSpaceOnUse">
<stop stop-color="#9BD71B"/>
<stop offset="1" stop-color="#4A4B57"/>
</linearGradient>
<linearGradient id="paint7_linear_306_22112" x1="176.642" y1="247.786" x2="197.986" y2="268.851" gradientUnits="userSpaceOnUse">
<stop stop-color="#9BD71B"/>
<stop offset="1" stop-color="#4A4B57"/>
</linearGradient>
<linearGradient id="paint8_linear_306_22112" x1="156.755" y1="224.26" x2="178.099" y2="245.325" gradientUnits="userSpaceOnUse">
<stop stop-color="#9BD71B"/>
<stop offset="1" stop-color="#4A4B57"/>
</linearGradient>
<linearGradient id="paint9_linear_306_22112" x1="89.9404" y1="163.957" x2="111.284" y2="185.022" gradientUnits="userSpaceOnUse">
<stop stop-color="#9BD71B"/>
<stop offset="1" stop-color="#4A4B57"/>
</linearGradient>
<linearGradient id="paint10_linear_306_22112" x1="221.311" y1="292.957" x2="242.655" y2="314.022" gradientUnits="userSpaceOnUse">
<stop stop-color="#9BD71B"/>
<stop offset="1" stop-color="#4A4B57"/>
</linearGradient>
<linearGradient id="paint11_linear_306_22112" x1="165.971" y1="237.253" x2="187.314" y2="258.318" gradientUnits="userSpaceOnUse">
<stop stop-color="#9BD71B"/>
<stop offset="1" stop-color="#4A4B57"/>
</linearGradient>
<linearGradient id="paint12_linear_306_22112" x1="101.415" y1="172.936" x2="122.758" y2="194.001" gradientUnits="userSpaceOnUse">
<stop stop-color="#9BD71B"/>
<stop offset="1" stop-color="#4A4B57"/>
</linearGradient>
<linearGradient id="paint13_linear_306_22112" x1="126.488" y1="191.031" x2="147.832" y2="212.096" gradientUnits="userSpaceOnUse">
<stop stop-color="#9BD71B"/>
<stop offset="1" stop-color="#4A4B57"/>
</linearGradient>
<linearGradient id="paint14_linear_306_22112" x1="191.044" y1="259.727" x2="212.388" y2="280.792" gradientUnits="userSpaceOnUse">
<stop stop-color="#9BD71B"/>
<stop offset="1" stop-color="#4A4B57"/>
</linearGradient>
</defs>
</svg>
