<svg width="80" height="80" viewBox="0 6 82 68" fill="none" xmlns="http://www.w3.org/2000/svg">
<g filter="url(#filter0_d_849_1605)">
<rect x="9.96001" y="5.16016" width="61.2" height="60" rx="21.6" fill="white" fill-opacity="0.1" shape-rendering="crispEdges"/>
<rect x="10.06" y="5.26016" width="61" height="59.8" rx="21.5" stroke="white" stroke-opacity="0.1" stroke-width="0.2" shape-rendering="crispEdges"/>
<path d="M31.2267 29.6729C31.2267 27.8625 31.2267 26.9574 31.5926 26.1617C31.9586 25.3661 32.6458 24.777 34.0204 23.5988L35.3537 22.456C37.8381 20.3265 39.0803 19.2617 40.56 19.2617C42.0397 19.2617 43.2819 20.3265 45.7663 22.456L47.0997 23.5988C48.4742 24.777 49.1615 25.3661 49.5274 26.1617C49.8934 26.9574 49.8934 27.8625 49.8934 29.6729V35.3267C49.8934 37.8409 49.8934 39.098 49.1123 39.879C48.3313 40.6601 47.0742 40.6601 44.56 40.6601H36.56C34.0459 40.6601 32.7888 40.6601 32.0077 39.879C31.2267 39.098 31.2267 37.8409 31.2267 35.3267V29.6729Z" stroke="white" stroke-width="1.8"/>
<path d="M43.8934 40.6602V33.9935C43.8934 33.2571 43.2964 32.6602 42.56 32.6602H38.56C37.8236 32.6602 37.2267 33.2571 37.2267 33.9935V40.6602" stroke="white" stroke-width="1.8" stroke-linecap="round" stroke-linejoin="round"/>
<path d="M32.4097 50.6074V51.374H28.5621V50.6074H32.4097ZM28.7086 47.5508V54.6602H27.7662V47.5508H28.7086ZM33.23 47.5508V54.6602H32.2925V47.5508H33.23ZM34.6369 52.0771V51.9648C34.6369 51.584 34.6922 51.2308 34.8029 50.9053C34.9136 50.5765 35.0731 50.2917 35.2814 50.0508C35.4897 49.8066 35.742 49.6178 36.0382 49.4844C36.3345 49.3477 36.6665 49.2793 37.0343 49.2793C37.4054 49.2793 37.7391 49.3477 38.0353 49.4844C38.3348 49.6178 38.5887 49.8066 38.797 50.0508C39.0086 50.2917 39.1697 50.5765 39.2804 50.9053C39.3911 51.2308 39.4464 51.584 39.4464 51.9648V52.0771C39.4464 52.458 39.3911 52.8112 39.2804 53.1367C39.1697 53.4622 39.0086 53.7471 38.797 53.9912C38.5887 54.2321 38.3364 54.4209 38.0402 54.5576C37.7472 54.6911 37.4152 54.7578 37.0441 54.7578C36.673 54.7578 36.3393 54.6911 36.0431 54.5576C35.7469 54.4209 35.493 54.2321 35.2814 53.9912C35.0731 53.7471 34.9136 53.4622 34.8029 53.1367C34.6922 52.8112 34.6369 52.458 34.6369 52.0771ZM35.5402 51.9648V52.0771C35.5402 52.3408 35.5711 52.5898 35.633 52.8242C35.6948 53.0553 35.7876 53.2604 35.9113 53.4395C36.0382 53.6185 36.1961 53.7601 36.3849 53.8643C36.5737 53.9652 36.7934 54.0156 37.0441 54.0156C37.2915 54.0156 37.508 53.9652 37.6935 53.8643C37.8823 53.7601 38.0386 53.6185 38.1623 53.4395C38.286 53.2604 38.3787 53.0553 38.4406 52.8242C38.5057 52.5898 38.5382 52.3408 38.5382 52.0771V51.9648C38.5382 51.7044 38.5057 51.4587 38.4406 51.2275C38.3787 50.9932 38.2843 50.7865 38.1574 50.6074C38.0337 50.4251 37.8774 50.2819 37.6886 50.1777C37.5031 50.0736 37.285 50.0215 37.0343 50.0215C36.7869 50.0215 36.5688 50.0736 36.38 50.1777C36.1945 50.2819 36.0382 50.4251 35.9113 50.6074C35.7876 50.7865 35.6948 50.9932 35.633 51.2275C35.5711 51.4587 35.5402 51.7044 35.5402 51.9648ZM41.5857 50.4268V54.6602H40.6775V49.377H41.5369L41.5857 50.4268ZM41.4001 51.8184L40.9802 51.8037C40.9835 51.4424 41.0307 51.1087 41.1218 50.8027C41.213 50.4935 41.3481 50.2249 41.5271 49.9971C41.7061 49.7692 41.9291 49.5934 42.196 49.4697C42.463 49.3428 42.7722 49.2793 43.1238 49.2793C43.3712 49.2793 43.599 49.3151 43.8074 49.3867C44.0157 49.4551 44.1964 49.5641 44.3494 49.7139C44.5024 49.8636 44.6212 50.0557 44.7058 50.29C44.7904 50.5244 44.8328 50.8076 44.8328 51.1396V54.6602H43.9294V51.1836C43.9294 50.9069 43.8822 50.6855 43.7878 50.5195C43.6967 50.3535 43.5665 50.2331 43.3972 50.1582C43.2279 50.0801 43.0294 50.041 42.8015 50.041C42.5346 50.041 42.3116 50.0882 42.1326 50.1826C41.9535 50.277 41.8103 50.4072 41.7029 50.5732C41.5955 50.7393 41.5173 50.9297 41.4685 51.1445C41.4229 51.3561 41.4001 51.5807 41.4001 51.8184ZM44.823 51.3203L44.2175 51.5059C44.2208 51.2161 44.268 50.9378 44.3591 50.6709C44.4535 50.404 44.5886 50.1663 44.7644 49.958C44.9434 49.7497 45.1632 49.5853 45.4236 49.4648C45.684 49.3411 45.9819 49.2793 46.3171 49.2793C46.6003 49.2793 46.851 49.3167 47.0691 49.3916C47.2904 49.4665 47.476 49.582 47.6257 49.7383C47.7787 49.8913 47.8943 50.0882 47.9724 50.3291C48.0505 50.57 48.0896 50.8564 48.0896 51.1885V54.6602H47.1814V51.1787C47.1814 50.8825 47.1342 50.653 47.0398 50.4902C46.9486 50.3242 46.8184 50.2087 46.6492 50.1436C46.4832 50.0752 46.2846 50.041 46.0535 50.041C45.8549 50.041 45.6791 50.0752 45.5261 50.1436C45.3731 50.2119 45.2445 50.3063 45.1404 50.4268C45.0362 50.5439 44.9565 50.679 44.9011 50.832C44.849 50.985 44.823 51.1478 44.823 51.3203ZM51.7572 54.7578C51.3893 54.7578 51.0557 54.696 50.7562 54.5723C50.46 54.4453 50.2044 54.2679 49.9896 54.04C49.778 53.8122 49.6152 53.542 49.5013 53.2295C49.3874 52.917 49.3304 52.5752 49.3304 52.2041V51.999C49.3304 51.5693 49.3939 51.1868 49.5208 50.8516C49.6478 50.513 49.8203 50.2266 50.0384 49.9922C50.2565 49.7578 50.5039 49.5804 50.7806 49.46C51.0573 49.3395 51.3438 49.2793 51.64 49.2793C52.0176 49.2793 52.3431 49.3444 52.6165 49.4746C52.8932 49.6048 53.1195 49.7871 53.2953 50.0215C53.471 50.2526 53.6012 50.526 53.6859 50.8418C53.7705 51.1543 53.8128 51.4961 53.8128 51.8672V52.2725H49.8675V51.5352H52.9095V51.4668C52.8965 51.2324 52.8477 51.0046 52.763 50.7832C52.6816 50.5618 52.5514 50.3796 52.3724 50.2363C52.1934 50.0931 51.9492 50.0215 51.64 50.0215C51.4349 50.0215 51.2461 50.0654 51.0736 50.1533C50.901 50.238 50.7529 50.3649 50.6292 50.5342C50.5055 50.7035 50.4095 50.9102 50.3412 51.1543C50.2728 51.3984 50.2386 51.68 50.2386 51.999V52.2041C50.2386 52.4548 50.2728 52.6908 50.3412 52.9121C50.4128 53.1302 50.5153 53.3223 50.6488 53.4883C50.7855 53.6543 50.9499 53.7845 51.1419 53.8789C51.3372 53.9733 51.5586 54.0205 51.806 54.0205C52.125 54.0205 52.3952 53.9554 52.6165 53.8252C52.8379 53.695 53.0316 53.5208 53.1976 53.3027L53.7445 53.7373C53.6305 53.9098 53.4857 54.0742 53.3099 54.2305C53.1341 54.3867 52.9176 54.5137 52.6605 54.6113C52.4066 54.709 52.1055 54.7578 51.7572 54.7578Z" fill="white"/>
</g>
<defs>
<filter id="filter0_d_849_1605" x="5.72205e-06" y="0.000155449" width="81.12" height="79.92" filterUnits="userSpaceOnUse" color-interpolation-filters="sRGB">
<feFlood flood-opacity="0" result="BackgroundImageFix"/>
<feColorMatrix in="SourceAlpha" type="matrix" values="0 0 0 0 0 0 0 0 0 0 0 0 0 0 0 0 0 0 127 0" result="hardAlpha"/>
<feOffset dy="4.8"/>
<feGaussianBlur stdDeviation="4.98"/>
<feComposite in2="hardAlpha" operator="out"/>
<feColorMatrix type="matrix" values="0 0 0 0 0.274038 0 0 0 0 0.274038 0 0 0 0 0.274038 0 0 0 0.25 0"/>
<feBlend mode="normal" in2="BackgroundImageFix" result="effect1_dropShadow_849_1605"/>
<feBlend mode="normal" in="SourceGraphic" in2="effect1_dropShadow_849_1605" result="shape"/>
</filter>
</defs>
</svg>
