<svg width="80" height="80" viewBox="0 0 80 80" fill="none" xmlns="http://www.w3.org/2000/svg">
<g filter="url(#filter0_d_80_15519)">
<rect x="9.96094" y="5.15997" width="60" height="60" rx="21.6" fill="url(#paint0_linear_80_15519)" shape-rendering="crispEdges"/>
<rect x="10.0609" y="5.25997" width="59.8" height="59.8" rx="21.5" stroke="white" stroke-opacity="0.1" stroke-width="0.2" shape-rendering="crispEdges"/>
<path d="M39.96 32.66C40.5534 32.66 41.1431 32.6953 41.7246 32.7625C39.9501 33.1717 38.6271 34.7612 38.627 36.66C38.6271 38.869 40.4179 40.66 42.627 40.66H43.96V40.7576C39.2182 41.1382 34.4356 40.8419 29.7578 39.867C29.0208 39.7133 28.582 38.9418 28.9482 38.284C29.7557 36.8339 31.0282 35.5598 32.6553 34.5887C34.7509 33.3381 37.3185 32.66 39.96 32.66Z" fill="#90C61B"/>
<path d="M47.9609 31.3267L47.9609 41.9933" stroke="#90C61B" stroke-width="1.8" stroke-linecap="round"/>
<path d="M53.293 36.66L42.6263 36.66" stroke="#90C61B" stroke-width="1.8" stroke-linecap="round"/>
<circle cx="39.9596" cy="23.3266" r="6.66667" fill="#90C61B"/>
<path d="M19.9049 47.5506V54.66H18.9625V47.5506H19.9049ZM22.8834 50.7488V51.5203H19.6998V50.7488H22.8834ZM23.3668 47.5506V48.3221H19.6998V47.5506H23.3668ZM24.1145 52.077V51.9647C24.1145 51.5838 24.1698 51.2306 24.2805 50.9051C24.3912 50.5763 24.5507 50.2915 24.759 50.0506C24.9673 49.8065 25.2196 49.6177 25.5158 49.4842C25.8121 49.3475 26.1441 49.2791 26.5119 49.2791C26.883 49.2791 27.2167 49.3475 27.5129 49.4842C27.8124 49.6177 28.0663 49.8065 28.2746 50.0506C28.4862 50.2915 28.6474 50.5763 28.758 50.9051C28.8687 51.2306 28.924 51.5838 28.924 51.9647V52.077C28.924 52.4578 28.8687 52.811 28.758 53.1365C28.6474 53.4621 28.4862 53.7469 28.2746 53.991C28.0663 54.2319 27.814 54.4207 27.5178 54.5574C27.2248 54.6909 26.8928 54.7576 26.5217 54.7576C26.1506 54.7576 25.817 54.6909 25.5207 54.5574C25.2245 54.4207 24.9706 54.2319 24.759 53.991C24.5507 53.7469 24.3912 53.4621 24.2805 53.1365C24.1698 52.811 24.1145 52.4578 24.1145 52.077ZM25.0178 51.9647V52.077C25.0178 52.3406 25.0487 52.5897 25.1106 52.824C25.1724 53.0552 25.2652 53.2602 25.3889 53.4393C25.5158 53.6183 25.6737 53.7599 25.8625 53.8641C26.0513 53.965 26.2711 54.0154 26.5217 54.0154C26.7691 54.0154 26.9856 53.965 27.1711 53.8641C27.3599 53.7599 27.5162 53.6183 27.6399 53.4393C27.7636 53.2602 27.8563 53.0552 27.9182 52.824C27.9833 52.5897 28.0158 52.3406 28.0158 52.077V51.9647C28.0158 51.7042 27.9833 51.4585 27.9182 51.2274C27.8563 50.993 27.7619 50.7863 27.635 50.6072C27.5113 50.4249 27.355 50.2817 27.1662 50.1776C26.9807 50.0734 26.7626 50.0213 26.5119 50.0213C26.2645 50.0213 26.0464 50.0734 25.8576 50.1776C25.6721 50.2817 25.5158 50.4249 25.3889 50.6072C25.2652 50.7863 25.1724 50.993 25.1106 51.2274C25.0487 51.4585 25.0178 51.7042 25.0178 51.9647ZM31.1463 47.16V54.66H30.2381V47.16H31.1463ZM33.6859 47.16V54.66H32.7777V47.16H33.6859ZM35.0049 52.077V51.9647C35.0049 51.5838 35.0602 51.2306 35.1709 50.9051C35.2816 50.5763 35.4411 50.2915 35.6494 50.0506C35.8577 49.8065 36.11 49.6177 36.4062 49.4842C36.7025 49.3475 37.0345 49.2791 37.4023 49.2791C37.7734 49.2791 38.1071 49.3475 38.4033 49.4842C38.7028 49.6177 38.9567 49.8065 39.165 50.0506C39.3766 50.2915 39.5378 50.5763 39.6484 50.9051C39.7591 51.2306 39.8145 51.5838 39.8145 51.9647V52.077C39.8145 52.4578 39.7591 52.811 39.6484 53.1365C39.5378 53.4621 39.3766 53.7469 39.165 53.991C38.9567 54.2319 38.7044 54.4207 38.4082 54.5574C38.1152 54.6909 37.7832 54.7576 37.4121 54.7576C37.041 54.7576 36.7074 54.6909 36.4111 54.5574C36.1149 54.4207 35.861 54.2319 35.6494 53.991C35.4411 53.7469 35.2816 53.4621 35.1709 53.1365C35.0602 52.811 35.0049 52.4578 35.0049 52.077ZM35.9082 51.9647V52.077C35.9082 52.3406 35.9391 52.5897 36.001 52.824C36.0628 53.0552 36.1556 53.2602 36.2793 53.4393C36.4062 53.6183 36.5641 53.7599 36.7529 53.8641C36.9417 53.965 37.1615 54.0154 37.4121 54.0154C37.6595 54.0154 37.876 53.965 38.0615 53.8641C38.2503 53.7599 38.4066 53.6183 38.5303 53.4393C38.654 53.2602 38.7467 53.0552 38.8086 52.824C38.8737 52.5897 38.9062 52.3406 38.9062 52.077V51.9647C38.9062 51.7042 38.8737 51.4585 38.8086 51.2274C38.7467 50.993 38.6523 50.7863 38.5254 50.6072C38.4017 50.4249 38.2454 50.2817 38.0566 50.1776C37.8711 50.0734 37.653 50.0213 37.4023 50.0213C37.1549 50.0213 36.9368 50.0734 36.748 50.1776C36.5625 50.2817 36.4062 50.4249 36.2793 50.6072C36.1556 50.7863 36.0628 50.993 36.001 51.2274C35.9391 51.4585 35.9082 51.7042 35.9082 51.9647ZM42.3932 53.7225L43.7506 49.3768H44.3463L44.2291 50.241L42.8473 54.66H42.2662L42.3932 53.7225ZM41.4801 49.3768L42.6373 53.7713L42.7203 54.66H42.11L40.5768 49.3768H41.4801ZM45.6451 53.7371L46.7486 49.3768H47.6471L46.1139 54.66H45.5084L45.6451 53.7371ZM44.4781 49.3768L45.8062 53.6492L45.9576 54.66H45.3814L43.9605 50.2313L43.8434 49.3768H44.4781ZM49.6642 49.3768V54.66H48.756V49.3768H49.6642ZM48.6877 47.9754C48.6877 47.8289 48.7316 47.7052 48.8195 47.6043C48.9107 47.5034 49.0441 47.4529 49.2199 47.4529C49.3924 47.4529 49.5243 47.5034 49.6154 47.6043C49.7098 47.7052 49.757 47.8289 49.757 47.9754C49.757 48.1154 49.7098 48.2358 49.6154 48.3367C49.5243 48.4344 49.3924 48.4832 49.2199 48.4832C49.0441 48.4832 48.9107 48.4344 48.8195 48.3367C48.7316 48.2358 48.6877 48.1154 48.6877 47.9754ZM52.1258 50.5047V54.66H51.2224V49.3768H52.0769L52.1258 50.5047ZM51.9109 51.8182L51.5349 51.8035C51.5382 51.4422 51.5919 51.1085 51.6961 50.8026C51.8002 50.4933 51.9467 50.2248 52.1355 49.9969C52.3243 49.769 52.5489 49.5932 52.8094 49.4695C53.073 49.3426 53.3644 49.2791 53.6834 49.2791C53.9438 49.2791 54.1782 49.3149 54.3865 49.3865C54.5948 49.4549 54.7722 49.5656 54.9187 49.7186C55.0685 49.8716 55.1824 50.0701 55.2605 50.3143C55.3386 50.5552 55.3777 50.8498 55.3777 51.1981V54.66H54.4695V51.1883C54.4695 50.9116 54.4288 50.6902 54.3474 50.5242C54.2661 50.355 54.1472 50.2329 53.991 50.158C53.8347 50.0799 53.6427 50.0408 53.4148 50.0408C53.1902 50.0408 52.9851 50.088 52.7996 50.1824C52.6173 50.2768 52.4594 50.407 52.326 50.5731C52.1957 50.7391 52.0932 50.9295 52.0183 51.1443C51.9467 51.3559 51.9109 51.5805 51.9109 51.8182ZM60.2806 49.3768H61.1009V54.5477C61.1009 55.0132 61.0065 55.4103 60.8177 55.7391C60.6289 56.0679 60.3653 56.3169 60.0267 56.4861C59.6914 56.6587 59.3041 56.7449 58.8646 56.7449C58.6823 56.7449 58.4675 56.7156 58.2201 56.657C57.9759 56.6017 57.7351 56.5057 57.4974 56.369C57.2631 56.2355 57.0661 56.0548 56.9066 55.827L57.3802 55.2899C57.6016 55.5568 57.8327 55.7423 58.0736 55.8465C58.3177 55.9507 58.5586 56.0027 58.7963 56.0027C59.0827 56.0027 59.3301 55.949 59.5384 55.8416C59.7468 55.7342 59.9079 55.5747 60.0218 55.3631C60.139 55.1548 60.1976 54.8976 60.1976 54.5916V50.5389L60.2806 49.3768ZM56.6429 52.077V51.9744C56.6429 51.5708 56.6901 51.2046 56.7845 50.8758C56.8822 50.5438 57.0205 50.2589 57.1996 50.0213C57.3819 49.7837 57.6016 49.6014 57.8588 49.4744C58.1159 49.3442 58.4056 49.2791 58.7279 49.2791C59.0599 49.2791 59.3496 49.3377 59.597 49.4549C59.8477 49.5688 60.0593 49.7365 60.2318 49.9578C60.4076 50.1759 60.5459 50.4396 60.6468 50.7488C60.7478 51.0581 60.8177 51.408 60.8568 51.7986V52.2479C60.821 52.6352 60.751 52.9835 60.6468 53.2928C60.5459 53.602 60.4076 53.8657 60.2318 54.0838C60.0593 54.3019 59.8477 54.4695 59.597 54.5867C59.3464 54.7007 59.0534 54.7576 58.7181 54.7576C58.4024 54.7576 58.1159 54.6909 57.8588 54.5574C57.6049 54.424 57.3868 54.2368 57.2045 53.9959C57.0222 53.755 56.8822 53.4718 56.7845 53.1463C56.6901 52.8175 56.6429 52.4611 56.6429 52.077ZM57.5463 51.9744V52.077C57.5463 52.3406 57.5723 52.588 57.6244 52.8192C57.6797 53.0503 57.7627 53.2537 57.8734 53.4295C57.9873 53.6053 58.1322 53.7436 58.308 53.8445C58.4838 53.9422 58.6937 53.991 58.9379 53.991C59.2373 53.991 59.4847 53.9276 59.68 53.8006C59.8754 53.6736 60.03 53.506 60.1439 53.2977C60.2611 53.0893 60.3522 52.8631 60.4174 52.619V51.4422C60.3815 51.2632 60.3262 51.0906 60.2513 50.9246C60.1797 50.7554 60.0853 50.6056 59.9681 50.4754C59.8542 50.3419 59.7126 50.2361 59.5433 50.158C59.3741 50.0799 59.1755 50.0408 58.9476 50.0408C58.7002 50.0408 58.487 50.0929 58.308 50.1971C58.1322 50.298 57.9873 50.438 57.8734 50.617C57.7627 50.7928 57.6797 50.9979 57.6244 51.2322C57.5723 51.4634 57.5463 51.7108 57.5463 51.9744Z" fill="#90C61B"/>
</g>
<defs>
<filter id="filter0_d_80_15519" x="0.000936508" y="-2.76566e-05" width="79.92" height="79.92" filterUnits="userSpaceOnUse" color-interpolation-filters="sRGB">
<feFlood flood-opacity="0" result="BackgroundImageFix"/>
<feColorMatrix in="SourceAlpha" type="matrix" values="0 0 0 0 0 0 0 0 0 0 0 0 0 0 0 0 0 0 127 0" result="hardAlpha"/>
<feOffset dy="4.8"/>
<feGaussianBlur stdDeviation="4.98"/>
<feComposite in2="hardAlpha" operator="out"/>
<feColorMatrix type="matrix" values="0 0 0 0 0.274038 0 0 0 0 0.274038 0 0 0 0 0.274038 0 0 0 0.25 0"/>
<feBlend mode="normal" in2="BackgroundImageFix" result="effect1_dropShadow_80_15519"/>
<feBlend mode="normal" in="SourceGraphic" in2="effect1_dropShadow_80_15519" result="shape"/>
</filter>
<linearGradient id="paint0_linear_80_15519" x1="69.9609" y1="35.16" x2="9.96094" y2="35.16" gradientUnits="userSpaceOnUse">
<stop stop-color="#282828"/>
<stop offset="1" stop-color="#9BD71B" stop-opacity="0.1"/>
</linearGradient>
</defs>
</svg>
