<svg  width="80" height="80" viewBox="-12 0 82 68" fill="none" xmlns="http://www.w3.org/2000/svg">
<rect width="60" height="60" rx="21.6" fill="url(#paint0_linear_849_363)"/>
<path d="M32 28.5C32.1838 28.5002 32.3338 28.6492 32.334 28.833V35.5H27.667V28.833C27.6672 28.6492 27.8162 28.5002 28 28.5H32ZM30 14.1016C31.4797 14.1016 32.7217 15.1665 35.2061 17.2959L36.54 18.4385C37.9145 19.6166 38.6018 20.2063 38.9678 21.002C39.3335 21.7975 39.333 22.7027 39.333 24.5127V30.167C39.333 32.6806 39.3335 33.9377 38.5527 34.7188C37.8071 35.4644 36.6271 35.4975 34.334 35.499V28.833C34.3338 27.5446 33.2884 26.5002 32 26.5H28C26.7116 26.5002 25.6672 27.5446 25.667 28.833V35.499C23.3733 35.4975 22.193 35.4645 21.4473 34.7188C20.6665 33.9377 20.667 32.6806 20.667 30.167V24.5127C20.667 22.7027 20.6665 21.7975 21.0322 21.002C21.3982 20.2063 22.0855 19.6166 23.46 18.4385L24.7939 17.2959C27.2783 15.1665 28.5203 14.1016 30 14.1016Z" fill="#9BD71B"/>
<path d="M21.8497 45.4473V46.2139H18.0021V45.4473H21.8497ZM18.1485 42.3906V49.5H17.2062V42.3906H18.1485ZM22.67 42.3906V49.5H21.7325V42.3906H22.67ZM24.0769 46.917V46.8047C24.0769 46.4238 24.1322 46.0706 24.2429 45.7451C24.3536 45.4163 24.5131 45.1315 24.7214 44.8906C24.9297 44.6465 25.182 44.4577 25.4782 44.3242C25.7745 44.1875 26.1065 44.1191 26.4743 44.1191C26.8454 44.1191 27.1791 44.1875 27.4753 44.3242C27.7748 44.4577 28.0287 44.6465 28.237 44.8906C28.4486 45.1315 28.6097 45.4163 28.7204 45.7451C28.8311 46.0706 28.8864 46.4238 28.8864 46.8047V46.917C28.8864 47.2979 28.8311 47.651 28.7204 47.9766C28.6097 48.3021 28.4486 48.5869 28.237 48.8311C28.0287 49.0719 27.7764 49.2607 27.4802 49.3975C27.1872 49.5309 26.8552 49.5977 26.4841 49.5977C26.113 49.5977 25.7793 49.5309 25.4831 49.3975C25.1869 49.2607 24.933 49.0719 24.7214 48.8311C24.5131 48.5869 24.3536 48.3021 24.2429 47.9766C24.1322 47.651 24.0769 47.2979 24.0769 46.917ZM24.9802 46.8047V46.917C24.9802 47.1807 25.0111 47.4297 25.073 47.6641C25.1348 47.8952 25.2276 48.1003 25.3513 48.2793C25.4782 48.4583 25.6361 48.5999 25.8249 48.7041C26.0137 48.805 26.2334 48.8555 26.4841 48.8555C26.7315 48.8555 26.948 48.805 27.1335 48.7041C27.3223 48.5999 27.4786 48.4583 27.6023 48.2793C27.7259 48.1003 27.8187 47.8952 27.8806 47.6641C27.9457 47.4297 27.9782 47.1807 27.9782 46.917V46.8047C27.9782 46.5443 27.9457 46.2985 27.8806 46.0674C27.8187 45.833 27.7243 45.6263 27.5974 45.4473C27.4737 45.265 27.3174 45.1217 27.1286 45.0176C26.9431 44.9134 26.725 44.8613 26.4743 44.8613C26.2269 44.8613 26.0088 44.9134 25.82 45.0176C25.6345 45.1217 25.4782 45.265 25.3513 45.4473C25.2276 45.6263 25.1348 45.833 25.073 46.0674C25.0111 46.2985 24.9802 46.5443 24.9802 46.8047ZM31.0257 45.2666V49.5H30.1175V44.2168H30.9769L31.0257 45.2666ZM30.8401 46.6582L30.4202 46.6436C30.4235 46.2822 30.4707 45.9486 30.5618 45.6426C30.653 45.3333 30.788 45.0648 30.9671 44.8369C31.1461 44.609 31.3691 44.4333 31.636 44.3096C31.903 44.1826 32.2122 44.1191 32.5638 44.1191C32.8112 44.1191 33.039 44.1549 33.2474 44.2266C33.4557 44.2949 33.6364 44.404 33.7894 44.5537C33.9423 44.7035 34.0612 44.8955 34.1458 45.1299C34.2304 45.3643 34.2727 45.6475 34.2727 45.9795V49.5H33.3694V46.0234C33.3694 45.7467 33.3222 45.5254 33.2278 45.3594C33.1367 45.1934 33.0065 45.0729 32.8372 44.998C32.6679 44.9199 32.4694 44.8809 32.2415 44.8809C31.9746 44.8809 31.7516 44.9281 31.5726 45.0225C31.3935 45.1169 31.2503 45.2471 31.1429 45.4131C31.0354 45.5791 30.9573 45.7695 30.9085 45.9844C30.8629 46.196 30.8401 46.4206 30.8401 46.6582ZM34.263 46.1602L33.6575 46.3457C33.6608 46.056 33.708 45.7777 33.7991 45.5107C33.8935 45.2438 34.0286 45.0062 34.2044 44.7979C34.3834 44.5895 34.6032 44.4251 34.8636 44.3047C35.124 44.181 35.4218 44.1191 35.7571 44.1191C36.0403 44.1191 36.291 44.1566 36.5091 44.2314C36.7304 44.3063 36.916 44.4219 37.0657 44.5781C37.2187 44.7311 37.3343 44.9281 37.4124 45.1689C37.4905 45.4098 37.5296 45.6963 37.5296 46.0283V49.5H36.6214V46.0186C36.6214 45.7223 36.5742 45.4928 36.4798 45.3301C36.3886 45.1641 36.2584 45.0485 36.0892 44.9834C35.9231 44.915 35.7246 44.8809 35.4935 44.8809C35.2949 44.8809 35.1191 44.915 34.9661 44.9834C34.8131 45.0518 34.6845 45.1462 34.5804 45.2666C34.4762 45.3838 34.3964 45.5189 34.3411 45.6719C34.289 45.8249 34.263 45.9876 34.263 46.1602ZM41.1972 49.5977C40.8293 49.5977 40.4957 49.5358 40.1962 49.4121C39.9 49.2852 39.6444 49.1077 39.4296 48.8799C39.218 48.652 39.0552 48.3818 38.9413 48.0693C38.8274 47.7568 38.7704 47.415 38.7704 47.0439V46.8389C38.7704 46.4092 38.8339 46.0267 38.9608 45.6914C39.0878 45.3529 39.2603 45.0664 39.4784 44.832C39.6965 44.5977 39.9439 44.4202 40.2206 44.2998C40.4973 44.1794 40.7837 44.1191 41.08 44.1191C41.4576 44.1191 41.7831 44.1842 42.0565 44.3145C42.3332 44.4447 42.5595 44.627 42.7352 44.8613C42.911 45.0924 43.0412 45.3659 43.1259 45.6816C43.2105 45.9941 43.2528 46.3359 43.2528 46.707V47.1123H39.3075V46.375H42.3495V46.3066C42.3365 46.0723 42.2876 45.8444 42.203 45.623C42.1216 45.4017 41.9914 45.2194 41.8124 45.0762C41.6334 44.9329 41.3892 44.8613 41.08 44.8613C40.8749 44.8613 40.6861 44.9053 40.5136 44.9932C40.341 45.0778 40.1929 45.2048 40.0692 45.374C39.9455 45.5433 39.8495 45.75 39.7811 45.9941C39.7128 46.2383 39.6786 46.5199 39.6786 46.8389V47.0439C39.6786 47.2946 39.7128 47.5306 39.7811 47.752C39.8528 47.9701 39.9553 48.1621 40.0888 48.3281C40.2255 48.4941 40.3899 48.6243 40.5819 48.7188C40.7772 48.8132 40.9986 48.8604 41.246 48.8604C41.565 48.8604 41.8352 48.7952 42.0565 48.665C42.2779 48.5348 42.4716 48.3607 42.6376 48.1426L43.1845 48.5771C43.0705 48.7497 42.9257 48.9141 42.7499 49.0703C42.5741 49.2266 42.3576 49.3535 42.1005 49.4512C41.8466 49.5488 41.5455 49.5977 41.1972 49.5977Z" fill="#9BD71B"/>
<defs>
<linearGradient id="paint0_linear_849_363" x1="60" y1="30" x2="0" y2="30" gradientUnits="userSpaceOnUse">
<stop stop-color="#282828"/>
<stop offset="1" stop-color="#9BD71B" stop-opacity="0.1"/>
</linearGradient>
</defs>
</svg>
