<svg width="80" height="80" viewBox="0 0 80 80" fill="none" xmlns="http://www.w3.org/2000/svg">
<g filter="url(#filter0_d_80_15336)">
<rect x="9.96094" y="5.15997" width="60" height="60" rx="21.6" fill="url(#paint0_linear_80_15336)" shape-rendering="crispEdges"/>
<rect x="10.0609" y="5.25997" width="59.8" height="59.8" rx="21.5" stroke="white" stroke-opacity="0.1" stroke-width="0.2" shape-rendering="crispEdges"/>
<path d="M39.9609 16.66C46.5884 16.66 51.9609 22.0326 51.9609 28.66C51.9609 35.2874 46.5884 40.66 39.9609 40.66C33.3335 40.66 27.9609 35.2874 27.9609 28.66C27.9609 22.0326 33.3335 16.66 39.9609 16.66ZM38.3379 23.3143C37.2714 22.7218 35.9609 23.4927 35.9609 24.7127V32.6072C35.9609 33.8272 37.2714 34.5981 38.3379 34.0057L45.8633 29.826C46.7776 29.318 46.7776 28.002 45.8633 27.494L38.3379 23.3143Z" fill="#9BD71B"/>
<path d="M29.6958 52.8631C29.6958 52.6971 29.6698 52.5506 29.6177 52.4236C29.5689 52.2934 29.481 52.1762 29.354 52.0721C29.2303 51.9679 29.0578 51.8686 28.8364 51.7742C28.6183 51.6798 28.3417 51.5838 28.0064 51.4861C27.6548 51.382 27.3374 51.2664 27.0542 51.1395C26.771 51.0093 26.5285 50.8611 26.3267 50.6951C26.1249 50.5291 25.9702 50.3387 25.8628 50.1238C25.7554 49.909 25.7017 49.6632 25.7017 49.3865C25.7017 49.1098 25.7586 48.8543 25.8726 48.6199C25.9865 48.3856 26.1493 48.1821 26.3609 48.0096C26.5757 47.8338 26.8312 47.6971 27.1275 47.5994C27.4237 47.5018 27.7541 47.4529 28.1187 47.4529C28.6525 47.4529 29.105 47.5555 29.4761 47.7606C29.8504 47.9624 30.1353 48.2277 30.3306 48.5565C30.5259 48.882 30.6236 49.2303 30.6236 49.6014H29.6861C29.6861 49.3345 29.6291 49.0984 29.5152 48.8934C29.4012 48.685 29.2287 48.5223 28.9976 48.4051C28.7665 48.2846 28.4735 48.2244 28.1187 48.2244C27.7834 48.2244 27.5067 48.2749 27.2886 48.3758C27.0705 48.4767 26.9077 48.6134 26.8003 48.7859C26.6961 48.9585 26.6441 49.1554 26.6441 49.3768C26.6441 49.5265 26.675 49.6632 26.7368 49.7869C26.8019 49.9074 26.9012 50.0197 27.0347 50.1238C27.1714 50.228 27.3439 50.324 27.5523 50.4119C27.7639 50.4998 28.0161 50.5845 28.3091 50.6658C28.7127 50.7798 29.0611 50.9067 29.354 51.0467C29.647 51.1867 29.8879 51.3445 30.0767 51.5203C30.2687 51.6929 30.4103 51.8898 30.5015 52.1111C30.5959 52.3292 30.6431 52.5766 30.6431 52.8533C30.6431 53.143 30.5845 53.4051 30.4673 53.6395C30.3501 53.8738 30.1825 54.074 29.9644 54.2401C29.7463 54.4061 29.4842 54.5346 29.1782 54.6258C28.8755 54.7137 28.537 54.7576 28.1626 54.7576C27.8338 54.7576 27.5099 54.7121 27.1909 54.6209C26.8752 54.5298 26.5871 54.393 26.3267 54.2108C26.0695 54.0285 25.8628 53.8039 25.7066 53.5369C25.5536 53.2667 25.4771 52.9542 25.4771 52.5994H26.4146C26.4146 52.8436 26.4618 53.0535 26.5562 53.2293C26.6506 53.4018 26.7792 53.5451 26.9419 53.659C27.1079 53.7729 27.2951 53.8576 27.5034 53.9129C27.715 53.965 27.9348 53.991 28.1626 53.991C28.4914 53.991 28.7697 53.9455 28.9976 53.8543C29.2254 53.7632 29.398 53.633 29.5152 53.4637C29.6356 53.2944 29.6958 53.0942 29.6958 52.8631ZM32.7189 47.16V54.66H31.8155V47.16H32.7189ZM32.504 51.8182L32.128 51.8035C32.1313 51.4422 32.185 51.1085 32.2892 50.8026C32.3933 50.4933 32.5398 50.2248 32.7286 49.9969C32.9174 49.769 33.142 49.5932 33.4025 49.4695C33.6661 49.3426 33.9575 49.2791 34.2765 49.2791C34.5369 49.2791 34.7713 49.3149 34.9796 49.3865C35.1879 49.4549 35.3653 49.5656 35.5118 49.7186C35.6616 49.8716 35.7755 50.0701 35.8536 50.3143C35.9317 50.5552 35.9708 50.8498 35.9708 51.1981V54.66H35.0626V51.1883C35.0626 50.9116 35.0219 50.6902 34.9405 50.5242C34.8592 50.355 34.7403 50.2329 34.5841 50.158C34.4278 50.0799 34.2358 50.0408 34.0079 50.0408C33.7833 50.0408 33.5782 50.088 33.3927 50.1824C33.2104 50.2768 33.0525 50.407 32.9191 50.5731C32.7888 50.7391 32.6863 50.9295 32.6114 51.1443C32.5398 51.3559 32.504 51.5805 32.504 51.8182ZM37.1921 52.077V51.9647C37.1921 51.5838 37.2474 51.2306 37.3581 50.9051C37.4688 50.5763 37.6283 50.2915 37.8366 50.0506C38.045 49.8065 38.2972 49.6177 38.5935 49.4842C38.8897 49.3475 39.2217 49.2791 39.5896 49.2791C39.9606 49.2791 40.2943 49.3475 40.5905 49.4842C40.89 49.6177 41.1439 49.8065 41.3522 50.0506C41.5638 50.2915 41.725 50.5763 41.8356 50.9051C41.9463 51.2306 42.0017 51.5838 42.0017 51.9647V52.077C42.0017 52.4578 41.9463 52.811 41.8356 53.1365C41.725 53.4621 41.5638 53.7469 41.3522 53.991C41.1439 54.2319 40.8916 54.4207 40.5954 54.5574C40.3024 54.6909 39.9704 54.7576 39.5993 54.7576C39.2282 54.7576 38.8946 54.6909 38.5983 54.5574C38.3021 54.4207 38.0482 54.2319 37.8366 53.991C37.6283 53.7469 37.4688 53.4621 37.3581 53.1365C37.2474 52.811 37.1921 52.4578 37.1921 52.077ZM38.0954 51.9647V52.077C38.0954 52.3406 38.1263 52.5897 38.1882 52.824C38.25 53.0552 38.3428 53.2602 38.4665 53.4393C38.5935 53.6183 38.7513 53.7599 38.9401 53.8641C39.1289 53.965 39.3487 54.0154 39.5993 54.0154C39.8467 54.0154 40.0632 53.965 40.2487 53.8641C40.4375 53.7599 40.5938 53.6183 40.7175 53.4393C40.8412 53.2602 40.934 53.0552 40.9958 52.824C41.0609 52.5897 41.0935 52.3406 41.0935 52.077V51.9647C41.0935 51.7042 41.0609 51.4585 40.9958 51.2274C40.934 50.993 40.8396 50.7863 40.7126 50.6072C40.5889 50.4249 40.4327 50.2817 40.2439 50.1776C40.0583 50.0734 39.8402 50.0213 39.5896 50.0213C39.3422 50.0213 39.1241 50.0734 38.9353 50.1776C38.7497 50.2817 38.5935 50.4249 38.4665 50.6072C38.3428 50.7863 38.25 50.993 38.1882 51.2274C38.1263 51.4585 38.0954 51.7042 38.0954 51.9647ZM44.1458 50.2068V54.66H43.2425V49.3768H44.1214L44.1458 50.2068ZM45.7962 49.3475L45.7913 50.1873C45.7164 50.171 45.6448 50.1613 45.5765 50.158C45.5114 50.1515 45.4365 50.1483 45.3519 50.1483C45.1435 50.1483 44.9596 50.1808 44.8001 50.2459C44.6406 50.311 44.5055 50.4022 44.3948 50.5193C44.2841 50.6365 44.1963 50.7765 44.1311 50.9393C44.0693 51.0988 44.0286 51.2746 44.0091 51.4666L43.7552 51.6131C43.7552 51.2941 43.7861 50.9946 43.8479 50.7147C43.913 50.4347 44.0123 50.1873 44.1458 49.9725C44.2793 49.7544 44.4485 49.5851 44.6536 49.4647C44.8619 49.341 45.1093 49.2791 45.3958 49.2791C45.4609 49.2791 45.5358 49.2873 45.6204 49.3035C45.705 49.3165 45.7636 49.3312 45.7962 49.3475ZM49.1952 49.3768V50.0701H46.3388V49.3768H49.1952ZM47.3056 48.0926H48.2089V53.3514C48.2089 53.5304 48.2365 53.6655 48.2919 53.7567C48.3472 53.8478 48.4188 53.908 48.5067 53.9373C48.5946 53.9666 48.689 53.9813 48.7899 53.9813C48.8648 53.9813 48.9429 53.9748 49.0243 53.9617C49.1089 53.9455 49.1724 53.9324 49.2147 53.9227L49.2196 54.66C49.148 54.6828 49.0536 54.7039 48.9364 54.7234C48.8225 54.7462 48.6841 54.7576 48.5214 54.7576C48.3 54.7576 48.0966 54.7137 47.911 54.6258C47.7255 54.5379 47.5774 54.3914 47.4667 54.1863C47.3593 53.978 47.3056 53.6981 47.3056 53.3465V48.0926ZM53.4389 53.2586C53.4389 53.1284 53.4096 53.008 53.3511 52.8973C53.2957 52.7833 53.1802 52.6808 53.0044 52.5897C52.8318 52.4953 52.5714 52.4139 52.2231 52.3455C51.9302 52.2837 51.6649 52.2104 51.4272 52.1258C51.1929 52.0412 50.9927 51.9386 50.8266 51.8182C50.6639 51.6977 50.5386 51.5561 50.4507 51.3934C50.3628 51.2306 50.3188 51.0402 50.3188 50.8221C50.3188 50.6137 50.3644 50.4168 50.4555 50.2313C50.5499 50.0457 50.6818 49.8813 50.8511 49.7381C51.0236 49.5949 51.2303 49.4826 51.4712 49.4012C51.7121 49.3198 51.9806 49.2791 52.2768 49.2791C52.7 49.2791 53.0613 49.354 53.3608 49.5037C53.6603 49.6535 53.8898 49.8537 54.0493 50.1043C54.2088 50.3517 54.2886 50.6268 54.2886 50.9295H53.3852C53.3852 50.783 53.3413 50.6414 53.2534 50.5047C53.1688 50.3647 53.0434 50.2492 52.8774 50.158C52.7147 50.0669 52.5145 50.0213 52.2768 50.0213C52.0262 50.0213 51.8227 50.0604 51.6665 50.1385C51.5135 50.2134 51.4012 50.3094 51.3296 50.4266C51.2612 50.5438 51.227 50.6675 51.227 50.7977C51.227 50.8953 51.2433 50.9832 51.2759 51.0613C51.3117 51.1362 51.3735 51.2062 51.4614 51.2713C51.5493 51.3332 51.673 51.3917 51.8325 51.4471C51.992 51.5024 52.1955 51.5578 52.4429 51.6131C52.8758 51.7108 53.2322 51.8279 53.5122 51.9647C53.7921 52.1014 54.0005 52.269 54.1372 52.4676C54.2739 52.6662 54.3423 52.907 54.3423 53.1902C54.3423 53.4214 54.2934 53.633 54.1958 53.825C54.1014 54.0171 53.963 54.1831 53.7807 54.3231C53.6017 54.4598 53.3869 54.5672 53.1362 54.6453C52.8888 54.7202 52.6105 54.7576 52.3013 54.7576C51.8358 54.7576 51.4419 54.6746 51.1196 54.5086C50.7973 54.3426 50.5532 54.1277 50.3872 53.8641C50.2212 53.6004 50.1382 53.3221 50.1382 53.0291H51.0464C51.0594 53.2765 51.131 53.4734 51.2612 53.6199C51.3914 53.7632 51.5509 53.8657 51.7397 53.9276C51.9285 53.9861 52.1157 54.0154 52.3013 54.0154C52.5486 54.0154 52.7554 53.9829 52.9214 53.9178C53.0906 53.8527 53.2192 53.7632 53.3071 53.6492C53.395 53.5353 53.4389 53.4051 53.4389 53.2586Z" fill="#9BD71B"/>
</g>
<defs>
<filter id="filter0_d_80_15336" x="0.000936508" y="-2.76566e-05" width="79.92" height="79.92" filterUnits="userSpaceOnUse" color-interpolation-filters="sRGB">
<feFlood flood-opacity="0" result="BackgroundImageFix"/>
<feColorMatrix in="SourceAlpha" type="matrix" values="0 0 0 0 0 0 0 0 0 0 0 0 0 0 0 0 0 0 127 0" result="hardAlpha"/>
<feOffset dy="4.8"/>
<feGaussianBlur stdDeviation="4.98"/>
<feComposite in2="hardAlpha" operator="out"/>
<feColorMatrix type="matrix" values="0 0 0 0 0.274038 0 0 0 0 0.274038 0 0 0 0 0.274038 0 0 0 0.25 0"/>
<feBlend mode="normal" in2="BackgroundImageFix" result="effect1_dropShadow_80_15336"/>
<feBlend mode="normal" in="SourceGraphic" in2="effect1_dropShadow_80_15336" result="shape"/>
</filter>
<linearGradient id="paint0_linear_80_15336" x1="69.9609" y1="35.16" x2="9.96094" y2="35.16" gradientUnits="userSpaceOnUse">
<stop stop-color="#282828"/>
<stop offset="1" stop-color="#9BD71B" stop-opacity="0.1"/>
</linearGradient>
</defs>
</svg>
