<svg width="80" height="80" viewBox="0 0 80 80" fill="none" xmlns="http://www.w3.org/2000/svg">
<g filter="url(#filter0_d_80_15546)">
<rect x="9.96094" y="5.15997" width="60" height="60" rx="21.6" fill="url(#paint0_linear_80_15546)" shape-rendering="crispEdges"/>
<rect x="10.0609" y="5.25997" width="59.8" height="59.8" rx="21.5" stroke="white" stroke-opacity="0.1" stroke-width="0.2" shape-rendering="crispEdges"/>
<path d="M50.1643 38.5338C50.9013 38.3802 51.3403 37.6089 50.9741 36.9511C50.1666 35.5009 48.8946 34.2265 47.2673 33.2554C45.1716 32.0046 42.6038 31.3267 39.9622 31.3267C37.3206 31.3267 34.7528 32.0046 32.6571 33.2554C31.0298 34.2265 29.7578 35.5009 28.9503 36.9511C28.5841 37.6089 29.0231 38.3802 29.7602 38.5338C36.4892 39.9362 43.4352 39.9362 50.1643 38.5338Z" fill="#9BD71B"/>
<circle cx="39.9596" cy="23.3266" r="6.66667" fill="#9BD71B"/>
<path d="M28.8462 51.8719H26.9468V51.1053H28.8462C29.214 51.1053 29.5119 51.0467 29.7398 50.9295C29.9676 50.8123 30.1336 50.6496 30.2378 50.4412C30.3452 50.2329 30.3989 49.9953 30.3989 49.7283C30.3989 49.4842 30.3452 49.2547 30.2378 49.0399C30.1336 48.825 29.9676 48.6525 29.7398 48.5223C29.5119 48.3888 29.214 48.3221 28.8462 48.3221H27.1665V54.66H26.2241V47.5506H28.8462C29.3833 47.5506 29.8374 47.6434 30.2085 47.8289C30.5796 48.0145 30.8612 48.2716 31.0532 48.6004C31.2453 48.9259 31.3413 49.2986 31.3413 49.7186C31.3413 50.1743 31.2453 50.5633 31.0532 50.8856C30.8612 51.2078 30.5796 51.4536 30.2085 51.6229C29.8374 51.7889 29.3833 51.8719 28.8462 51.8719ZM33.4073 50.2068V54.66H32.504V49.3768H33.3829L33.4073 50.2068ZM35.0577 49.3475L35.0528 50.1873C34.978 50.171 34.9064 50.1613 34.838 50.158C34.7729 50.1515 34.698 50.1483 34.6134 50.1483C34.4051 50.1483 34.2211 50.1808 34.0616 50.2459C33.9021 50.311 33.767 50.4022 33.6564 50.5193C33.5457 50.6365 33.4578 50.7765 33.3927 50.9393C33.3308 51.0988 33.2901 51.2746 33.2706 51.4666L33.0167 51.6131C33.0167 51.2941 33.0476 50.9946 33.1095 50.7147C33.1746 50.4347 33.2739 50.1873 33.4073 49.9725C33.5408 49.7544 33.7101 49.5851 33.9151 49.4647C34.1235 49.341 34.3709 49.2791 34.6573 49.2791C34.7224 49.2791 34.7973 49.2873 34.8819 49.3035C34.9666 49.3165 35.0252 49.3312 35.0577 49.3475ZM35.6638 52.077V51.9647C35.6638 51.5838 35.7191 51.2306 35.8298 50.9051C35.9405 50.5763 36.1 50.2915 36.3083 50.0506C36.5166 49.8065 36.7689 49.6177 37.0651 49.4842C37.3614 49.3475 37.6934 49.2791 38.0612 49.2791C38.4323 49.2791 38.766 49.3475 39.0622 49.4842C39.3617 49.6177 39.6156 49.8065 39.8239 50.0506C40.0355 50.2915 40.1967 50.5763 40.3073 50.9051C40.418 51.2306 40.4733 51.5838 40.4733 51.9647V52.077C40.4733 52.4578 40.418 52.811 40.3073 53.1365C40.1967 53.4621 40.0355 53.7469 39.8239 53.991C39.6156 54.2319 39.3633 54.4207 39.0671 54.5574C38.7741 54.6909 38.4421 54.7576 38.071 54.7576C37.6999 54.7576 37.3662 54.6909 37.07 54.5574C36.7738 54.4207 36.5199 54.2319 36.3083 53.991C36.1 53.7469 35.9405 53.4621 35.8298 53.1365C35.7191 52.811 35.6638 52.4578 35.6638 52.077ZM36.5671 51.9647V52.077C36.5671 52.3406 36.598 52.5897 36.6599 52.824C36.7217 53.0552 36.8145 53.2602 36.9382 53.4393C37.0651 53.6183 37.223 53.7599 37.4118 53.8641C37.6006 53.965 37.8203 54.0154 38.071 54.0154C38.3184 54.0154 38.5349 53.965 38.7204 53.8641C38.9092 53.7599 39.0655 53.6183 39.1892 53.4393C39.3129 53.2602 39.4056 53.0552 39.4675 52.824C39.5326 52.5897 39.5651 52.3406 39.5651 52.077V51.9647C39.5651 51.7042 39.5326 51.4585 39.4675 51.2274C39.4056 50.993 39.3112 50.7863 39.1843 50.6072C39.0606 50.4249 38.9043 50.2817 38.7155 50.1776C38.53 50.0734 38.3119 50.0213 38.0612 50.0213C37.8138 50.0213 37.5957 50.0734 37.4069 50.1776C37.2214 50.2817 37.0651 50.4249 36.9382 50.6072C36.8145 50.7863 36.7217 50.993 36.6599 51.2274C36.598 51.4585 36.5671 51.7042 36.5671 51.9647ZM42.9202 54.66H42.0169V48.9178C42.0169 48.5174 42.095 48.1789 42.2513 47.9022C42.4075 47.6255 42.6305 47.4155 42.9202 47.2723C43.2099 47.129 43.5533 47.0574 43.9505 47.0574C44.1849 47.0574 44.4144 47.0867 44.639 47.1453C44.8636 47.2007 45.0947 47.2707 45.3323 47.3553L45.181 48.117C45.0312 48.0584 44.8571 48.0031 44.6585 47.951C44.4632 47.8957 44.2483 47.868 44.014 47.868C43.6266 47.868 43.3466 47.9559 43.1741 48.1317C43.0048 48.3042 42.9202 48.5662 42.9202 48.9178V54.66ZM43.9993 49.3768V50.0701H41.1819V49.3768H43.9993ZM45.7767 49.3768V54.66H44.8733V49.3768H45.7767ZM48.3505 47.16V54.66H47.4423V47.16H48.3505ZM52.1011 54.7576C51.7332 54.7576 51.3996 54.6958 51.1001 54.5721C50.8039 54.4451 50.5483 54.2677 50.3335 54.0399C50.1219 53.812 49.9591 53.5418 49.8452 53.2293C49.7313 52.9168 49.6743 52.575 49.6743 52.2039V51.9988C49.6743 51.5692 49.7378 51.1867 49.8647 50.8514C49.9917 50.5128 50.1642 50.2264 50.3823 49.992C50.6004 49.7576 50.8478 49.5802 51.1245 49.4598C51.4012 49.3393 51.6876 49.2791 51.9839 49.2791C52.3615 49.2791 52.687 49.3442 52.9604 49.4744C53.2371 49.6046 53.4634 49.7869 53.6391 50.0213C53.8149 50.2524 53.9451 50.5259 54.0298 50.8416C54.1144 51.1541 54.1567 51.4959 54.1567 51.867V52.2723H50.2114V51.535H53.2534V51.4666C53.2404 51.2322 53.1915 51.0044 53.1069 50.783C53.0255 50.5617 52.8953 50.3794 52.7163 50.2361C52.5373 50.0929 52.2931 50.0213 51.9839 50.0213C51.7788 50.0213 51.59 50.0652 51.4175 50.1531C51.2449 50.2378 51.0968 50.3647 50.9731 50.534C50.8494 50.7033 50.7534 50.91 50.685 51.1541C50.6167 51.3983 50.5825 51.6798 50.5825 51.9988V52.2039C50.5825 52.4546 50.6167 52.6906 50.685 52.9119C50.7567 53.13 50.8592 53.3221 50.9927 53.4881C51.1294 53.6541 51.2938 53.7843 51.4858 53.8787C51.6811 53.9731 51.9025 54.0203 52.1499 54.0203C52.4689 54.0203 52.7391 53.9552 52.9604 53.825C53.1818 53.6948 53.3755 53.5207 53.5415 53.3026L54.0884 53.7371C53.9744 53.9096 53.8296 54.074 53.6538 54.2303C53.478 54.3865 53.2615 54.5135 53.0044 54.6111C52.7505 54.7088 52.4494 54.7576 52.1011 54.7576Z" fill="#9BD71B"/>
</g>
<defs>
<filter id="filter0_d_80_15546" x="0.000936508" y="-2.76566e-05" width="79.92" height="79.92" filterUnits="userSpaceOnUse" color-interpolation-filters="sRGB">
<feFlood flood-opacity="0" result="BackgroundImageFix"/>
<feColorMatrix in="SourceAlpha" type="matrix" values="0 0 0 0 0 0 0 0 0 0 0 0 0 0 0 0 0 0 127 0" result="hardAlpha"/>
<feOffset dy="4.8"/>
<feGaussianBlur stdDeviation="4.98"/>
<feComposite in2="hardAlpha" operator="out"/>
<feColorMatrix type="matrix" values="0 0 0 0 0.274038 0 0 0 0 0.274038 0 0 0 0 0.274038 0 0 0 0.25 0"/>
<feBlend mode="normal" in2="BackgroundImageFix" result="effect1_dropShadow_80_15546"/>
<feBlend mode="normal" in="SourceGraphic" in2="effect1_dropShadow_80_15546" result="shape"/>
</filter>
<linearGradient id="paint0_linear_80_15546" x1="69.9609" y1="35.16" x2="9.96094" y2="35.16" gradientUnits="userSpaceOnUse">
<stop stop-color="#282828"/>
<stop offset="1" stop-color="#9BD71B" stop-opacity="0.1"/>
</linearGradient>
</defs>
</svg>
