<svg width="42" height="42" viewBox="0 0 42 42" fill="none" xmlns="http://www.w3.org/2000/svg">
<rect x="0.5" y="0.5" width="41" height="41" rx="20.5" stroke="white" stroke-opacity="0.1"/>
<path d="M26.5172 21.5555C26.5078 19.957 27.232 18.7523 28.6945 17.8641C27.8766 16.6922 26.6391 16.0477 25.0078 15.9234C23.4633 15.8016 21.7734 16.8234 21.1547 16.8234C20.5008 16.8234 19.0055 15.9656 17.8289 15.9656C15.4008 16.0031 12.8203 17.9016 12.8203 21.7641C12.8203 22.9055 13.0289 24.0844 13.4461 25.2984C14.0039 26.8969 16.0148 30.8133 18.1125 30.75C19.2094 30.7242 19.9852 29.9719 21.4125 29.9719C22.7977 29.9719 23.5148 30.75 24.7383 30.75C26.8547 30.7195 28.6734 27.1594 29.2031 25.5563C26.3648 24.218 26.5172 21.6375 26.5172 21.5555ZM26.2687 27.8133C25.9336 28.2797 25.5961 28.6477 25.2867 28.8844C25.0406 29.0719 24.8508 29.1516 24.7242 29.1563C24.5133 29.1539 24.3094 29.1023 23.9109 28.95C23.8828 28.9383 23.8523 28.9266 23.8125 28.9125L23.7094 28.8727C23.3016 28.7156 23.0578 28.6313 22.7461 28.5492C22.3102 28.4367 21.8766 28.3758 21.4125 28.3758C20.9391 28.3758 20.4938 28.4344 20.0508 28.5445C19.725 28.6266 19.4508 28.718 19.05 28.868C19.0336 28.875 18.8602 28.9406 18.8109 28.9594C18.7289 28.9898 18.6656 29.0133 18.607 29.0344C18.3633 29.1188 18.2086 29.1539 18.0703 29.1563C18.0539 29.1563 18.0398 29.1539 18.0281 29.1516C18.0023 29.1469 17.9695 29.1375 17.932 29.1211C17.8266 29.0789 17.7 29.0016 17.557 28.8914C17.2289 28.6359 16.868 28.2352 16.5 27.7219C15.8555 26.8172 15.2461 25.6172 14.9531 24.7758C14.5922 23.7258 14.4141 22.7203 14.4141 21.7617C14.4141 20.3508 14.8312 19.2773 15.5484 18.5484C16.1648 17.925 16.9945 17.5758 17.8406 17.557C17.9789 17.5594 18.1805 17.5922 18.4359 17.6625C18.6375 17.7164 18.8578 17.7891 19.1555 17.8945C19.2445 17.9273 19.5516 18.0375 19.5891 18.0516C19.7695 18.1172 19.9055 18.1641 20.0391 18.2063C20.4656 18.3422 20.7961 18.4172 21.1547 18.4172C21.518 18.4172 21.8297 18.3398 22.2727 18.1875C22.4391 18.1313 23.0437 17.9063 23.1516 17.8688C23.7516 17.6555 24.1945 17.5406 24.5766 17.5125C24.6891 17.5031 24.7898 17.5031 24.8859 17.5102C25.418 17.5523 25.8727 17.6578 26.2594 17.8336C25.3781 18.8508 24.9234 20.0953 24.9258 21.5461C24.9187 21.8906 24.9469 22.2891 25.0453 22.7602C25.1953 23.475 25.4812 24.1828 25.9336 24.8461C26.2781 25.35 26.7047 25.8047 27.2156 26.2008C26.9461 26.7563 26.6156 27.3305 26.2687 27.8133ZM24.0539 14.407C25.2422 12.9961 25.1344 11.7117 25.0992 11.25C24.0492 11.3109 22.8352 11.9648 22.1437 12.7688C21.382 13.6313 20.9344 14.6977 21.0305 15.9C22.1648 15.9867 23.2008 15.4031 24.0539 14.407Z" fill="white"/>
</svg>
