<svg width="42" height="42" viewBox="0 0 42 42" fill="none" xmlns="http://www.w3.org/2000/svg">
<rect x="0.5" y="0.5" width="41" height="41" rx="20.5" stroke="white" stroke-opacity="0.1"/>
<path d="M28.8758 21.1749C28.8758 20.5274 28.8222 20.0549 28.7062 19.5649H21.1615V22.4874H25.5901C25.5008 23.2137 25.0187 24.3074 23.9472 25.0424L23.9322 25.1402L26.3177 26.9513L26.4829 26.9674C28.0008 25.5937 28.8758 23.5724 28.8758 21.1749Z" fill="#4285F4"/>
<path d="M21.161 28.8751C23.3306 28.8751 25.152 28.175 26.4824 26.9675L23.9467 25.0425C23.2681 25.5062 22.3574 25.83 21.161 25.83C19.036 25.83 17.2325 24.4563 16.5895 22.5575L16.4953 22.5653L14.0149 24.4466L13.9824 24.535C15.3038 27.1075 18.0181 28.8751 21.161 28.8751Z" fill="#34A853"/>
<path d="M16.59 22.5575C16.4204 22.0675 16.3222 21.5424 16.3222 21C16.3222 20.4574 16.4204 19.9325 16.5811 19.4425L16.5766 19.3381L14.0651 17.4266L13.9829 17.4649C13.4383 18.5325 13.1258 19.7312 13.1258 21C13.1258 22.2687 13.4383 23.4674 13.9829 24.5349L16.59 22.5575Z" fill="#FBBC05"/>
<path d="M21.161 16.17C22.6699 16.17 23.6878 16.8087 24.2682 17.3425L26.536 15.1725C25.1432 13.9038 23.3306 13.125 21.161 13.125C18.0181 13.125 15.3038 14.8925 13.9824 17.465L16.5806 19.4425C17.2325 17.5437 19.036 16.17 21.161 16.17Z" fill="#EB4335"/>
</svg>
