<svg width="16" height="12" viewBox="0 0 16 12" fill="none" xmlns="http://www.w3.org/2000/svg">
<path d="M0.9613 3.60679L0.704785 2.90202L1.50969e-05 3.15854L0.25653 3.86331L0.9613 3.60679ZM14.239 10.6258C14.6144 10.8009 15.0606 10.6384 15.2356 10.263C15.4107 9.88762 15.2483 9.44139 14.8729 9.26634L14.5559 9.94607L14.239 10.6258ZM8.93486 0.704655L8.67834 -0.000114572L0.704785 2.90202L0.9613 3.60679L1.21781 4.31156L9.19137 1.40942L8.93486 0.704655ZM0.9613 3.60679L0.25653 3.86331L3.15867 11.8369L3.86344 11.5803L4.56821 11.3238L1.66607 3.35028L0.9613 3.60679ZM0.9613 3.60679L0.644336 4.28652L14.239 10.6258L14.5559 9.94607L14.8729 9.26634L1.27826 2.92706L0.9613 3.60679Z" fill="#B9BABA"/>
</svg>
