<svg width="51" height="51" viewBox="0 0 51 51" fill="none" xmlns="http://www.w3.org/2000/svg">
<rect width="51" height="51" rx="18" fill="white" fill-opacity="0.1"/>
<rect x="0.1" y="0.1" width="50.8" height="50.8" rx="17.9" stroke="white" stroke-opacity="0.1" stroke-width="0.2"/>
<path d="M16.0299 27.894C15.8173 29.2471 16.768 30.1862 17.9321 30.6542C22.3948 32.4486 28.6052 32.4486 33.0679 30.6542C34.232 30.1862 35.1827 29.2471 34.9701 27.894C34.8394 27.0625 34.1932 26.3701 33.7144 25.694C33.0873 24.7975 33.025 23.8197 33.0249 22.7794C33.0249 18.7591 29.6559 15.5 25.5 15.5C21.3441 15.5 17.9751 18.7591 17.9751 22.7794C17.975 23.8197 17.9127 24.7975 17.2856 25.694C16.8068 26.3701 16.1606 27.0625 16.0299 27.894Z" stroke="white" stroke-width="1.5" stroke-linecap="round" stroke-linejoin="round"/>
<path d="M22.5 34.5C23.2961 35.1219 24.3475 35.5 25.5 35.5C26.6525 35.5 27.7039 35.1219 28.5 34.5" stroke="white" stroke-width="1.5" stroke-linecap="round" stroke-linejoin="round"/>
</svg>
