<svg width="15" height="14" viewBox="0 0 15 14" fill="none" xmlns="http://www.w3.org/2000/svg">
<path d="M10.5 0C11.1222 -2.71987e-08 11.606 0.000330874 12 0.0205078C10.3125 0.207045 9 1.63779 9 3.375V6L8.92578 13.4756L6.75 12.75L4.5 13.5L2.25 12.75L0 13.5V3C-6.18172e-08 1.58579 0.00011329 0.878794 0.439453 0.439453C0.878793 0.000113503 1.58579 6.18172e-08 3 0H10.5ZM2.25 8.25C1.83579 8.25 1.5 8.58579 1.5 9C1.5 9.41421 1.83579 9.75 2.25 9.75H5.25C5.66421 9.75 6 9.41421 6 9C6 8.58579 5.66421 8.25 5.25 8.25H2.25ZM2.25 5.25C1.83579 5.25 1.5 5.58579 1.5 6C1.5 6.41421 1.83579 6.75 2.25 6.75H3.75C4.16421 6.75 4.5 6.41421 4.5 6C4.5 5.58579 4.16421 5.25 3.75 5.25H2.25ZM12.375 1.5C13.4105 1.5 14.25 2.33947 14.25 3.375V6H10.5V3.375C10.5 2.33947 11.3395 1.5 12.375 1.5ZM2.25 2.25C1.83579 2.25 1.5 2.58579 1.5 3C1.5 3.41421 1.83579 3.75 2.25 3.75H6.75C7.16421 3.75 7.5 3.41421 7.5 3C7.5 2.58579 7.16421 2.25 6.75 2.25H2.25Z" fill="#C8C8C8"/>
</svg>
