<svg width="18" height="18" viewBox="0 0 18 18" fill="none" xmlns="http://www.w3.org/2000/svg">
<path d="M15.75 13.5V5.25L13.5 6.75L9 7.5L3.75 6.75L2.25 5.25V13.5L6.75 8.625L9.75 11.25L12.375 9.75L14.625 13.125L15.75 13.5Z" fill="#C8C8C8"/>
<path d="M2.25 12.75L4.52936 10.0908C5.43089 9.03896 5.88166 8.51306 6.44 8.43279C6.62135 8.40672 6.80594 8.41409 6.98463 8.45454C7.53479 8.57908 7.94218 9.13925 8.75697 10.2596L8.9902 10.5803C9.1784 10.839 9.2725 10.9684 9.37729 11.041C9.6139 11.2047 9.92334 11.2186 10.1737 11.0768C10.2846 11.014 10.39 10.8936 10.6007 10.6528C11.0379 10.1531 11.2566 9.9032 11.4845 9.77641C11.9995 9.48992 12.6345 9.53152 13.1077 9.88274C13.3171 10.0382 13.5013 10.3144 13.8696 10.867L15.375 13.125" stroke="#C8C8C8" stroke-width="1.5"/>
<path d="M5.25 7.125V3.375M12.75 7.125V3.375" stroke="#C8C8C8" stroke-width="1.5" stroke-linecap="round"/>
<path d="M2.25 12.75V5.25M15.75 5.25V12.75" stroke="#C8C8C8" stroke-width="1.5" stroke-linecap="round"/>
<path d="M12.7648 3.38249C13.9664 3.65162 14.8765 4.04239 15.3609 4.49711C15.8453 4.95183 15.8783 5.44641 15.455 5.90787C15.0318 6.36932 14.1747 6.77318 13.0102 7.05986C11.8458 7.34654 10.4357 7.50085 8.98812 7.5C7.54051 7.49915 6.13207 7.34319 4.97067 7.05515C3.80927 6.7671 2.95644 6.36223 2.53806 5.90028C2.11968 5.43834 2.15791 4.9438 2.6471 4.48965C3.1363 4.0355 4.05055 3.6458 5.25491 3.37808" stroke="#C8C8C8" stroke-width="1.5" stroke-linecap="round"/>
<path d="M15.75 12.75C15.75 13.3467 15.0388 13.919 13.773 14.341C12.5071 14.7629 10.7902 15 9 15C7.20979 15 5.4929 14.7629 4.22703 14.341C2.96116 13.919 2.25 13.3467 2.25 12.75" stroke="#C8C8C8" stroke-width="1.5"/>
</svg>
