<svg width="19" height="18" viewBox="0 0 19 18" fill="none" xmlns="http://www.w3.org/2000/svg">
<path d="M7.27014 3.4415C8.05675 1.4805 8.45005 0.5 9.12638 0.5C9.8027 0.5 10.196 1.4805 10.9826 3.4415L11.0192 3.53281C11.4636 4.64068 11.6858 5.19462 12.1387 5.5313C12.5915 5.86799 13.186 5.92123 14.3749 6.02771L14.5898 6.04696C16.5356 6.22122 17.5086 6.30835 17.7167 6.92734C17.9249 7.54632 17.2024 8.20366 15.7573 9.51835L15.2751 9.95713C14.5436 10.6226 14.1778 10.9554 14.0073 11.3915C13.9755 11.4729 13.9491 11.5562 13.9282 11.641C13.8161 12.0957 13.9232 12.5784 14.1375 13.5439L14.2041 13.8444C14.5978 15.6188 14.7946 16.5059 14.451 16.8886C14.3225 17.0316 14.1556 17.1345 13.9702 17.1851C13.474 17.3205 12.7695 16.7465 11.3606 15.5984C10.4354 14.8445 9.97282 14.4676 9.44172 14.3828C9.23281 14.3494 9.01994 14.3494 8.81103 14.3828C8.27993 14.4676 7.81734 14.8445 6.89217 15.5984C5.48322 16.7465 4.77874 17.3205 4.28254 17.1851C4.09712 17.1345 3.93021 17.0316 3.80179 16.8886C3.45811 16.5059 3.65495 15.6188 4.04862 13.8444L4.1153 13.5439C4.32951 12.5784 4.43661 12.0957 4.32456 11.641C4.30365 11.5562 4.27722 11.4729 4.24542 11.3915C4.07494 10.9554 3.70919 10.6226 2.97768 9.95713L2.4954 9.51835C1.05036 8.20366 0.327836 7.54632 0.536014 6.92734C0.744193 6.30835 1.7171 6.22122 3.66291 6.04696L3.87785 6.02771C5.06677 5.92123 5.66122 5.86799 6.11407 5.5313C6.56692 5.19462 6.78912 4.64068 7.23351 3.53281L7.27014 3.4415Z" stroke="url(#paint0_linear_797_3467)"/>
<defs>
<linearGradient id="paint0_linear_797_3467" x1="17.752" y1="8.85232" x2="0.500793" y2="8.85232" gradientUnits="userSpaceOnUse">
<stop stop-color="#535353"/>
<stop offset="1" stop-color="#9BD71B" stop-opacity="0.3"/>
</linearGradient>
</defs>
</svg>
